<svg xmlns="http://www.w3.org/2000/svg" height="1000" width="4100" viewBox="0 0 4100 1000">
<rect width="4100" height="1000" style="fill:none;"/>
<path d="M1575.22,312.36c-95.2-3-174.94,69-178.07,160.61S1468.78,641.38,1564,644.39c3.68.18,7.55.18,11.23,0a211.15,211.15,0,0,0,140.87-58.5l58.56,62.75c-54,53.19-127.43,84-204.59,85.8-145.65,3.9-266.82-106.71-270.69-246.76,0-2.66-.18-5.32-.18-8.15,0-142.89,119.88-252.09,274.56-252.09,74.94.53,146.76,29.25,200.16,79.95l-57.82,70C1680.73,337.71,1629.54,314.13,1575.22,312.36Z" style="fill:#000;"/>
<path d="M2104.08,230.28V730.19h-99.44V230.28Z" style="fill:#000;"/>
<path d="M2550.62,313.07c-46.77,0-77.15,16.48-77.15,47.15,0,101.4,278.79,46.45,278.05,225.67,0,93.6-84.52,147.85-198.69,147.85-80.65-.54-158.54-28.9-219.5-80L2374.77,573a297.41,297.41,0,0,0,179.54,73.57c55.24,0,88.94-19.86,88.94-55,0-104.24-278.8-45-278.8-222.65,0-87.22,77.9-142.89,194.28-142.89a363.24,363.24,0,0,1,187.64,53.19l-40,82.78A343.92,343.92,0,0,0,2550.62,313.07Z" style="fill:#000;"/>
<path d="M3412.41,403.3c0,114.16-74.95,180.64-205.5,180.64H3093.48V731.08H2994V230.28h212.87C3337.46,230.28,3412.41,292.5,3412.41,403.3Zm-94.1,2.83c0-61.33-42.35-91.47-116.56-91.47H3093.48V498.85h108.27c74.21,0,116.56-30.85,116.56-93.6Z" style="fill:#000;"/>
<path d="M3947.16,624.36H3693.6l-46,106.36H3544.44l227.79-500.44h103.12L4100,730.19H3993.2Zm-35.54-82.08-90.41-209.89-92.07,209.89Z" style="fill:#000;"/>
<path d="M1114,0V1000h-14V0Z" style="fill:#000;"/>
<g>
<path d="M843.82,137.56,731.61,255.81c8.51,8.15,16.66,16.66,24.28,25.52L880,175A486.14,486.14,0,0,0,843.82,137.56Z" style="fill:#33b0d0;"/>
<path d="M783,87.93l-48.93,70.91c9,6.2,17.73,12.58,26.06,19.5l54.24-67Q799.23,99.09,783,87.93Z" style="fill:#99d7e7;"/>
<path d="M703.24,43.25l-47.33,106A357.61,357.61,0,0,1,691.37,167l58.5-100.34A503.85,503.85,0,0,0,703.24,43.25Z" style="fill:#66c4dc;"/>
<path d="M616.56,13.47,578.44,173c11.53,2.84,22.87,6.2,33.86,10.1L666.73,29.25A480.65,480.65,0,0,0,616.56,13.47Z" style="fill:#66c4dc;"/>
<path d="M539.09,1.77,528.45,137.56c9.58,0,19,1.95,28.19,3.37L578.09,6.2C565.33,4.08,552.21,2.66,539.09,1.77Z" style="fill:#009cc4;"/>
<path d="M445.84,89.88a419.62,419.62,0,0,1,54.07-3.55V0a492.55,492.55,0,0,0-65.24,4.43Z" style="fill:#66c4dc;"/>
<path d="M404.18,176.92c8.51-2.48,17.73-4.79,25.71-6.56L396,10.81c-12.94,2.66-25.71,5.85-38.11,9.58Z" style="fill:#009cc4;"/>
<path d="M321.75,126.57c9.75-4.78,19.68-8.86,30-12.76l-31-80.66c-12.23,4.79-24.29,9.93-35.46,15.42Z" style="fill:#66c4dc;"/>
<path d="M287.89,238.08a350.16,350.16,0,0,1,43.61-29.61L250,66.65a491.07,491.07,0,0,0-64.53,44.5Z" style="fill:#99d7e7;"/>
<path d="M119.84,175.32l65.59,56A413.54,413.54,0,0,1,215.21,200l-59.39-62.4A516.7,516.7,0,0,0,119.84,175.32Z" style="fill:#66c4dc;"/>
<path d="M73.75,238.79l139,85.27a261.58,261.58,0,0,1,14.71-22L95.55,206.17C88.64,216.63,80.48,227.62,73.75,238.79Z" style="fill:#33b0d0;"/>
<path d="M24.46,345.51,134.73,381a374.55,374.55,0,0,1,23-55.66L54.6,272.11A493.44,493.44,0,0,0,24.46,345.51Z" style="fill:#66c4dc;"/>
<path d="M91.3,435.21q2.7-16.14,6.38-31.91l-83.85-20c-3,12.58-5.68,25.35-7.63,37.93Z" style="fill:#33b0d0;"/>
<path d="M0,499.91H162.91c0-8.86,0-17.73,1.42-26.41L1.77,460.73C0,474.38,0,486.62,0,499.91Z" style="fill:#99d7e7;"/>
<path d="M1.77,539.09A458.2,458.2,0,0,0,11,603.79l84.2-17.72a437.51,437.51,0,0,1-7.63-53.19Z" style="fill:#009cc4;"/>
<path d="M37.94,691.19l150.68-62.4a349.93,349.93,0,0,1-11.35-33.15L20.56,641.91A506.16,506.16,0,0,0,37.94,691.19Z" style="fill:#009cc4;"/>
<path d="M54.6,726.82A516.62,516.62,0,0,0,80.66,772L153,725.23c-7.8-12.24-15.07-24.64-21.63-37.59Z" style="fill:#66c4dc;"/>
<path d="M128.52,834.43,230.46,743a228.33,228.33,0,0,1-17.73-22L103.35,804.11C111.33,814.57,119.66,824.68,128.52,834.43Z" style="fill:#66c4dc;"/>
<path d="M155.82,862.44c12.77,11.87,26.06,23.4,39.89,34L295,766.89A299.54,299.54,0,0,1,268.21,744Z" style="fill:#009cc4;"/>
<path d="M227.62,919a499,499,0,0,0,69,37.58L343.73,850.2a361.52,361.52,0,0,1-53.18-28.71Z" style="fill:#66c4dc;"/>
<path d="M408.79,991.31c12.77,2.31,25.71,4.44,38.83,5.68l9-85.8c-10.82-1.07-21.63-2.66-32.09-4.61Z" style="fill:#99d7e7;"/>
<path d="M499.91,999.82a496.07,496.07,0,0,0,65.24-4.43L543.88,833.72a363.82,363.82,0,0,1-44,3.19H491L486.79,1000Z" style="fill:#33b0d0;"/>
<path d="M608.93,867.93c-9.57,2.84-19.32,5.5-29.25,7.45l24.11,113.1c12.94-2.66,25.53-6,38.12-9.58Z" style="fill:#99d7e7;"/>
<path d="M652.72,799.86a330.63,330.63,0,0,1-32.26,14.36L679,966.5a446.47,446.47,0,0,0,47.86-21.28Z" style="fill:#33b0d0;"/>
<path d="M728.59,782.49a373.56,373.56,0,0,1-38.82,27.12l70.91,116.47a492.39,492.39,0,0,0,53.18-37.76Z" style="fill:#33b0d0;"/>
<path d="M755.89,718.67A328.08,328.08,0,0,1,731.61,744L843.82,862.44a487.15,487.15,0,0,0,35.46-37.94Z" style="fill:#009cc4;"/>
<path d="M387.52,817.05,333.1,970.75l4.43,1.6c10.81,3.72,21.63,7.26,32.79,10.28h0L412.69,825C404.18,822.9,395.85,819.89,387.52,817.05Z" style="fill:#33b0d0;"/>
</g>
</svg>
